<svg width="50" height="27" viewBox="0 0 50 27" fill="none" xmlns="http://www.w3.org/2000/svg">
<g clip-path="url(#clip0_1333_34052)">
<path d="M16.12 1.5L5.62 13.4951L16.12 25.4902H13L2.5 13.4951L13 1.5H16.12Z" fill="#279DAF"/>
<path d="M33.8203 1.5L44.3203 13.4951L33.8203 25.4902H36.9403L47.4403 13.4951L36.9403 1.5H33.8203Z" fill="#279DAF"/>
<path d="M18.79 8.53979L18.8232 8.5896L18.8672 8.63159L21.0439 10.6687L22.1455 11.7L20.9482 13.8523L20.8066 14.1072L20.959 14.3572L22.4482 16.7898L22.4873 16.8552L22.5449 16.906L24.3789 18.5095V22.1863L24.0723 21.5261L23.9932 21.3542L23.8203 21.2781L21.835 20.406L21.0459 19.6746L21.3525 19.0808L19.0791 17.2732L18.3398 15.9685L19.2119 16.4099L19.7979 15.616L17.5576 13.2947L17.2432 11.3318L18.3428 12.4148L19.1299 11.8152L17.5742 9.01538L17.2471 6.17554L18.79 8.53979ZM22.6572 10.781L22.2803 11.4578L21.8613 10.1511L21.7695 9.86597L22.6572 10.781Z" fill="url(#paint0_linear_1333_34052)" stroke="url(#paint1_linear_1333_34052)"/>
<path d="M32.1855 9.02197L30.6309 11.8218L31.418 12.4214L32.5176 11.3384L32.2021 13.3013L29.9629 15.6226L30.5488 16.4165L31.4199 15.9751L30.6807 17.2798L28.4082 19.0874L28.7139 19.6802L27.9229 20.4136L25.9404 21.2847L25.7676 21.3608L25.6885 21.5327L25.2939 22.3804L25.2305 20.8325L25.3682 18.5278L27.2158 16.9126L27.2734 16.8618L27.3125 16.7974L28.8018 14.3628L28.9541 14.1138L28.8125 13.8589L27.6143 11.7065L28.7178 10.6753L30.8936 8.63818L30.9375 8.59619L30.9707 8.54639L32.5127 6.18213L32.1855 9.02197ZM27.8994 10.1577L27.4795 11.4644L27.1025 10.7876L27.9902 9.87256L27.8994 10.1577Z" fill="url(#paint2_linear_1333_34052)" stroke="url(#paint3_linear_1333_34052)"/>
</g>
<defs>
<linearGradient id="paint0_linear_1333_34052" x1="20.6941" y1="4.12671" x2="20.6941" y2="24.4529" gradientUnits="userSpaceOnUse">
<stop stop-color="white"/>
<stop offset="0.5" stop-color="#007688"/>
<stop offset="1" stop-color="#003132"/>
</linearGradient>
<linearGradient id="paint1_linear_1333_34052" x1="20.6941" y1="4.12671" x2="20.6941" y2="24.4529" gradientUnits="userSpaceOnUse">
<stop stop-color="#26C8CC"/>
<stop offset="1" stop-color="#002C2D"/>
</linearGradient>
<linearGradient id="paint2_linear_1333_34052" x1="29.0662" y1="4.1333" x2="29.0662" y2="24.4595" gradientUnits="userSpaceOnUse">
<stop stop-color="white"/>
<stop offset="0.5" stop-color="#007688"/>
<stop offset="1" stop-color="#003132"/>
</linearGradient>
<linearGradient id="paint3_linear_1333_34052" x1="29.0662" y1="4.1333" x2="29.0662" y2="24.4595" gradientUnits="userSpaceOnUse">
<stop stop-color="#26C8CC"/>
<stop offset="1" stop-color="#002C2D"/>
</linearGradient>
<clipPath id="clip0_1333_34052">
<rect width="45" height="24" fill="white" transform="translate(2.5 1.5)"/>
</clipPath>
</defs>
</svg>
