<svg width="50" height="27" viewBox="0 0 50 27" fill="none" xmlns="http://www.w3.org/2000/svg">
<g clip-path="url(#clip0_1333_34078)">
<path d="M16.3173 1.5L6.05067 13.3769L16.3173 25.2539H13.2667L3 13.3769L13.2667 1.5H16.3173Z" fill="#FFA72C"/>
<path d="M33.624 1.5L43.8907 13.3769L33.624 25.2539H36.6747L46.9414 13.3769L36.6747 1.5H33.624Z" fill="#FFA72C"/>
<path d="M14.96 4.9729L18.6867 9.64907L19.9289 10.7918L21.2251 12.4789L21.3871 10.7918L22.8993 11.8803L24.9517 8.34297V23.5808L21.8732 21.0774L21.3871 19.6081L20.739 18.8463H19.4968L18.1466 17.4857L16.6343 16.3429L17.9305 15.7987L16.4182 14.8736L15.2301 12.6968L14.96 9.43138V8.34297V4.9729Z" fill="url(#paint0_linear_1333_34078)"/>
<path d="M34.958 4.94678L31.2313 9.62293L29.9891 10.7657L28.6929 12.4528L28.5309 10.7657L27.0187 11.8541L24.9663 8.31684L21.2793 15.2546L24.9661 23.5547L28.0447 21.0513L28.5309 19.5819L29.1789 18.8201H30.4211L31.7714 17.4595L33.2837 16.3169L31.9875 15.7726L33.4997 14.8474L34.6879 12.6707L34.958 9.40524V8.31684V4.94678Z" fill="url(#paint1_linear_1333_34078)"/>
<g filter="url(#filter0_d_1333_34078)">
<path d="M17.082 16.4023H19.3888L20.9551 17.0506L22.4674 18.7374V20.8055L21.8733 19.1185L20.9551 18.3022H19.929L19.3888 17.8124L18.4167 17.0506L17.082 16.4023Z" fill="url(#paint2_linear_1333_34078)"/>
</g>
<path d="M15.5166 10.248L16.7048 11.7718L17.8226 13.0779L18.0011 13.9487L19.5675 16.0713L18.0011 15.0371L17.0122 14.7105L15.9861 12.4248L15.5166 10.248Z" fill="url(#paint3_linear_1333_34078)"/>
<g filter="url(#filter1_d_1333_34078)">
<path d="M32.9215 16.4023H30.6146L29.0483 17.0506L27.5361 18.7374V20.8055L28.1302 19.1185L29.0483 18.3022H30.0745L30.6146 17.8124L31.5868 17.0506L32.9215 16.4023Z" fill="url(#paint4_linear_1333_34078)"/>
</g>
<path d="M34.4865 10.248L33.2982 11.7718L32.1805 13.0779L32.0019 13.9487L30.4355 16.0713L32.0019 15.0371L32.9908 14.7105L34.017 12.4248L34.4865 10.248Z" fill="url(#paint5_linear_1333_34078)"/>
<path d="M21.7793 11.6051L23.0851 12.828L23.0838 13.5397L23.572 14.1412L23.9 13.155L23.5753 12.2796L24.9999 9.53711L24.9997 18.7886L23.5689 15.9479L22.2669 14.3076L21.7793 13.3778V11.6051Z" fill="url(#paint6_linear_1333_34078)"/>
<path d="M28.2302 11.5858L26.9273 12.8053L26.9294 13.5161L26.4425 14.1161L26.1137 13.1309L26.437 12.2571L24.9883 9.5498L24.9995 18.7885L26.4479 15.9204L27.7463 14.284L28.2323 13.3559L28.2302 11.5858Z" fill="url(#paint7_linear_1333_34078)"/>
<path d="M15.71 6.82153L18.4104 10.2979L19.6082 11.2549L20.4724 13.0778L22.0896 14.7059L23.6559 17.1593L25.006 19.8259V23.0367L23.2808 19.5269L22.7948 17.8124L21.8736 16.6696L20.9584 16.4249L20.4724 15.4678L19.7605 14.7059L18.7981 14.2481L18.5 12.9998L17 11.4998L15.71 9.75067V8.26182V6.82153Z" fill="url(#paint8_linear_1333_34078)"/>
<path d="M34.254 6.83301L31.5535 10.3093L30.3557 11.2664L29.4915 13.0893L27.8743 14.7174L26.308 17.1708L25.0088 19.826L25.0088 21L25.0088 23.0368L26.6831 19.5383L27.1691 17.8239L28.0903 16.681L29.0055 16.4364L29.4915 15.4792L30.2034 14.7174L31.1659 14.2595L31.5535 12.5406L32.5161 11.4297L33.4882 10.9943L34.254 8.27329V6.83301Z" fill="url(#paint9_linear_1333_34078)"/>
</g>
<defs>
<filter id="filter0_d_1333_34078" x="16.082" y="15.4023" width="7.38574" height="6.40308" filterUnits="userSpaceOnUse" color-interpolation-filters="sRGB">
<feFlood flood-opacity="0" result="BackgroundImageFix"/>
<feColorMatrix in="SourceAlpha" type="matrix" values="0 0 0 0 0 0 0 0 0 0 0 0 0 0 0 0 0 0 127 0" result="hardAlpha"/>
<feOffset/>
<feGaussianBlur stdDeviation="0.5"/>
<feComposite in2="hardAlpha" operator="out"/>
<feColorMatrix type="matrix" values="0 0 0 0 0 0 0 0 0 0.733333 0 0 0 0 1 0 0 0 0.3 0"/>
<feBlend mode="normal" in2="BackgroundImageFix" result="effect1_dropShadow_1333_34078"/>
<feBlend mode="normal" in="SourceGraphic" in2="effect1_dropShadow_1333_34078" result="shape"/>
</filter>
<filter id="filter1_d_1333_34078" x="26.5361" y="15.4023" width="7.38574" height="6.40308" filterUnits="userSpaceOnUse" color-interpolation-filters="sRGB">
<feFlood flood-opacity="0" result="BackgroundImageFix"/>
<feColorMatrix in="SourceAlpha" type="matrix" values="0 0 0 0 0 0 0 0 0 0 0 0 0 0 0 0 0 0 127 0" result="hardAlpha"/>
<feOffset/>
<feGaussianBlur stdDeviation="0.5"/>
<feComposite in2="hardAlpha" operator="out"/>
<feColorMatrix type="matrix" values="0 0 0 0 0 0 0 0 0 0.733333 0 0 0 0 1 0 0 0 0.3 0"/>
<feBlend mode="normal" in2="BackgroundImageFix" result="effect1_dropShadow_1333_34078"/>
<feBlend mode="normal" in="SourceGraphic" in2="effect1_dropShadow_1333_34078" result="shape"/>
</filter>
<linearGradient id="paint0_linear_1333_34078" x1="19.9558" y1="4.9729" x2="19.9558" y2="23.5808" gradientUnits="userSpaceOnUse">
<stop stop-color="#008DFF"/>
<stop offset="0.175" stop-color="#105F9F"/>
<stop offset="0.35" stop-color="#0E5085"/>
<stop offset="1" stop-color="#008DFF"/>
</linearGradient>
<linearGradient id="paint1_linear_1333_34078" x1="28.1187" y1="4.94678" x2="28.1187" y2="23.5547" gradientUnits="userSpaceOnUse">
<stop stop-color="#008DFF"/>
<stop offset="0.175" stop-color="#105F9F"/>
<stop offset="0.35" stop-color="#0E5085"/>
<stop offset="1" stop-color="#008DFF"/>
</linearGradient>
<linearGradient id="paint2_linear_1333_34078" x1="19.7747" y1="16.4023" x2="19.7747" y2="20.8055" gradientUnits="userSpaceOnUse">
<stop stop-color="white"/>
<stop offset="0.1" stop-color="#CC891E"/>
<stop offset="0.75" stop-color="#FFC05B"/>
<stop offset="1" stop-color="#996716"/>
</linearGradient>
<linearGradient id="paint3_linear_1333_34078" x1="17.5421" y1="10.248" x2="17.5421" y2="16.0713" gradientUnits="userSpaceOnUse">
<stop stop-color="white"/>
<stop offset="0.25" stop-color="#EF9300"/>
<stop offset="0.75" stop-color="#EF9300"/>
<stop offset="1" stop-color="#996716"/>
</linearGradient>
<linearGradient id="paint4_linear_1333_34078" x1="30.2288" y1="16.4023" x2="30.2288" y2="20.8055" gradientUnits="userSpaceOnUse">
<stop stop-color="white"/>
<stop offset="0.1" stop-color="#CC891E"/>
<stop offset="0.75" stop-color="#FFC05B"/>
<stop offset="1" stop-color="#996716"/>
</linearGradient>
<linearGradient id="paint5_linear_1333_34078" x1="32.461" y1="10.248" x2="32.461" y2="16.0713" gradientUnits="userSpaceOnUse">
<stop stop-color="white"/>
<stop offset="0.25" stop-color="#EF9300"/>
<stop offset="0.75" stop-color="#EF9300"/>
<stop offset="1" stop-color="#996716"/>
</linearGradient>
<linearGradient id="paint6_linear_1333_34078" x1="23.3896" y1="9.53711" x2="23.3896" y2="18.7886" gradientUnits="userSpaceOnUse">
<stop stop-color="white"/>
<stop offset="0.5" stop-color="#FFBC52"/>
<stop offset="0.75" stop-color="#B3781A"/>
<stop offset="1" stop-color="#996716"/>
</linearGradient>
<linearGradient id="paint7_linear_1333_34078" x1="26.6103" y1="9.5498" x2="26.6103" y2="18.7885" gradientUnits="userSpaceOnUse">
<stop stop-color="white"/>
<stop offset="0.5" stop-color="#FFBC52"/>
<stop offset="0.75" stop-color="#B3781A"/>
<stop offset="1" stop-color="#996716"/>
</linearGradient>
<linearGradient id="paint8_linear_1333_34078" x1="20.358" y1="6.82153" x2="20.358" y2="23.0367" gradientUnits="userSpaceOnUse">
<stop stop-color="white"/>
<stop offset="0.25" stop-color="#CC891E"/>
<stop offset="0.75" stop-color="#F0B14C"/>
<stop offset="1" stop-color="#E6C48E"/>
</linearGradient>
<linearGradient id="paint9_linear_1333_34078" x1="29.627" y1="6.83301" x2="29.627" y2="23.0368" gradientUnits="userSpaceOnUse">
<stop stop-color="white"/>
<stop offset="0.25" stop-color="#CC891E"/>
<stop offset="0.75" stop-color="#EB9D21"/>
<stop offset="1" stop-color="#E6C48E"/>
</linearGradient>
<clipPath id="clip0_1333_34078">
<rect width="44" height="24" fill="white" transform="translate(3 1.5)"/>
</clipPath>
</defs>
</svg>
