<svg width="50" height="27" viewBox="0 0 50 27" fill="none" xmlns="http://www.w3.org/2000/svg">
<path d="M16.1904 1.5L5.73828 13.5L16.1904 25.5H13.085L2.63281 13.5L13.085 1.5H16.1904Z" fill="#9834C3"/>
<path d="M33.8096 1.5L44.2617 13.5L33.8096 25.5H36.915L47.3672 13.5L36.915 1.5H33.8096Z" fill="#9834C3"/>
<path d="M18.8067 9.79806L19.7619 12.2911L19.7941 12.3772L19.8553 12.4452L21.8456 14.6748L22.6919 14.1802L22.4309 13.4173L23.0888 13.8838L23.3759 14.2525L23.8393 14.8482L24.2073 14.1882L24.9601 12.8361L24.9595 20.9306L24.837 20.7457L24.7886 20.6722L24.7176 20.6208L23.9624 20.0641L22.8486 19.0411L22.7512 18.9508L22.6204 18.9214L20.0235 18.3351L19.287 17.563L20.3609 17.8093L20.7192 16.887L18.8792 15.8454L17.2414 14.7648L16.3021 12.1252L17.4637 13.0248L18.1726 12.3342L16.7886 10.4423L15.7439 7.72307L15.6668 7.01558L18.8067 9.79806Z" fill="url(#paint0_linear_1333_34066)" stroke="url(#paint1_linear_1333_34066)"/>
<path d="M32.1093 9.79806L31.1541 12.2911L31.1219 12.3772L31.0607 12.4452L29.0704 14.6748L28.2241 14.1802L28.4851 13.4173L27.8273 13.8838L27.5401 14.2525L27.0768 14.8482L26.7087 14.1882L25.9559 12.8361L25.9565 20.9306L26.079 20.7457L26.1274 20.6722L26.1984 20.6208L26.9536 20.0641L28.0674 19.0411L28.1648 18.9508L28.2957 18.9214L30.8925 18.3351L31.629 17.563L30.5551 17.8093L30.1968 16.887L32.0368 15.8454L33.6746 14.7648L34.6139 12.1252L33.4523 13.0248L32.7434 12.3342L34.1274 10.4423L35.1721 7.72307L35.2492 7.01558L32.1093 9.79806Z" fill="url(#paint2_linear_1333_34066)" stroke="url(#paint3_linear_1333_34066)"/>
<defs>
<linearGradient id="paint0_linear_1333_34066" x1="15.6367" y1="5.35255" x2="27.0376" y2="21.4662" gradientUnits="userSpaceOnUse">
<stop stop-color="white"/>
<stop offset="0.5" stop-color="#A801D2"/>
<stop offset="1" stop-color="#200042"/>
</linearGradient>
<linearGradient id="paint1_linear_1333_34066" x1="15.6367" y1="5.35255" x2="27.0376" y2="21.4662" gradientUnits="userSpaceOnUse">
<stop stop-color="#C94AFF"/>
<stop offset="1" stop-color="#3B0479"/>
</linearGradient>
<linearGradient id="paint2_linear_1333_34066" x1="35.2794" y1="5.35255" x2="23.8784" y2="21.4662" gradientUnits="userSpaceOnUse">
<stop stop-color="white"/>
<stop offset="0.5" stop-color="#A801D2"/>
<stop offset="1" stop-color="#200042"/>
</linearGradient>
<linearGradient id="paint3_linear_1333_34066" x1="35.2794" y1="5.35255" x2="23.8784" y2="21.4662" gradientUnits="userSpaceOnUse">
<stop stop-color="#C94AFF"/>
<stop offset="1" stop-color="#3B0479"/>
</linearGradient>
</defs>
</svg>
