<svg width="50" height="27" viewBox="0 0 50 27" fill="none" xmlns="http://www.w3.org/2000/svg">
<g clip-path="url(#clip0_1333_34046)">
<path d="M16.12 1.5L5.62 13.4951L16.12 25.4902H13L2.5 13.4951L13 1.5H16.12Z" fill="#BE981A"/>
<path d="M33.8203 1.5L44.3203 13.4951L33.8203 25.4902H36.9403L47.4403 13.4951L36.9403 1.5H33.8203Z" fill="#BE981A"/>
<path d="M18.3027 8.10376L18.3271 8.13306L18.3545 8.15845L21.2598 10.8088L20.6182 13.3059L20.5791 13.4583L20.6348 13.6057L21.873 16.9133L21.9189 17.0354L22.0186 17.1204L24.3818 19.1086V22.5735L23.6123 21.3372L23.582 21.2883L23.541 21.2473L21.7812 19.4963L21.7305 19.4456L21.668 19.4114L19.0176 17.967L17.7041 16.344L18.6318 16.4563L20.0127 16.6233L19.0537 15.6155L17.8799 14.3831L17.8711 14.3733L17.8623 14.3645L16.6025 13.1711L16.0566 10.804L16.873 11.4807L18.2969 12.6614L17.6621 10.9241L16.6396 8.1272L16.376 5.72876L18.3027 8.10376Z" fill="url(#paint0_linear_1333_34046)" stroke="url(#paint1_linear_1333_34046)"/>
<path d="M33.1182 8.125L32.0977 10.9209L31.4629 12.6582L32.8857 11.4775L33.7021 10.7998L33.1553 13.168L31.8975 14.3613L31.8877 14.3701L31.8789 14.3799L30.7061 15.6123L29.7461 16.6201L31.1279 16.4531L32.0547 16.3408L30.7412 17.9639L28.0918 19.4082L28.0283 19.4424L27.9785 19.4932L26.2188 21.2441L26.1777 21.2852L26.1465 21.334L25.377 22.5703V19.1064L27.7402 17.1172L27.8408 17.0322L27.8867 16.9102L29.125 13.6025L29.1797 13.4551L29.1406 13.3027L28.498 10.8057L31.4053 8.15527L31.4326 8.12988L31.4561 8.10059L33.3818 5.72559L33.1182 8.125Z" fill="url(#paint2_linear_1333_34046)" stroke="url(#paint3_linear_1333_34046)"/>
</g>
<defs>
<linearGradient id="paint0_linear_1333_34046" x1="20.0598" y1="4.09302" x2="20.0598" y2="24.3246" gradientUnits="userSpaceOnUse">
<stop stop-color="white"/>
<stop offset="0.5" stop-color="#D7AC20"/>
<stop offset="1" stop-color="#5D440C"/>
</linearGradient>
<linearGradient id="paint1_linear_1333_34046" x1="20.0598" y1="4.09302" x2="20.0598" y2="24.3246" gradientUnits="userSpaceOnUse">
<stop stop-color="#DDA11B"/>
<stop offset="1" stop-color="#765816"/>
</linearGradient>
<linearGradient id="paint2_linear_1333_34046" x1="29.6995" y1="4.08984" x2="29.6995" y2="24.3214" gradientUnits="userSpaceOnUse">
<stop stop-color="white"/>
<stop offset="0.5" stop-color="#D7AC20"/>
<stop offset="1" stop-color="#5D440C"/>
</linearGradient>
<linearGradient id="paint3_linear_1333_34046" x1="29.6995" y1="4.08984" x2="29.6995" y2="24.3214" gradientUnits="userSpaceOnUse">
<stop stop-color="#DDA11B"/>
<stop offset="1" stop-color="#765816"/>
</linearGradient>
<clipPath id="clip0_1333_34046">
<rect width="45" height="24" fill="white" transform="translate(2.5 1.5)"/>
</clipPath>
</defs>
</svg>
