<svg width="50" height="27" viewBox="0 0 50 27" fill="none" xmlns="http://www.w3.org/2000/svg">
<g clip-path="url(#clip0_1333_34058)">
<path d="M16.12 1.5L5.62 13.4951L16.12 25.4902H13L2.5 13.4951L13 1.5H16.12Z" fill="#0C75FE"/>
<path d="M33.8203 1.5L44.3203 13.4951L33.8203 25.4902H36.9403L47.4403 13.4951L36.9403 1.5H33.8203Z" fill="#0C75FE"/>
<path d="M18.0889 9.65869L18.7627 11.0298L18.8262 11.1587L18.9473 11.2339L19.8486 11.7964L20.8467 12.4194L20.6016 11.2681L20.3428 10.0532L21.3604 10.9839L21.4316 12.1108L21.4385 12.2251L21.4951 12.3257L22.6016 14.2866L22.6172 14.312L24.5107 17.2368V20.8081L23.8447 19.6753L23.6963 19.4224L23.4033 19.4282L23.2217 19.4321L22.2627 18.5815L22.1768 18.5054L22.0674 18.4741L20.6299 18.064L19.957 17.4546L20.3262 17.522L20.6758 16.604L16.8779 14.2798L16.1641 12.771L17.4131 13.5249L19.0703 14.9448L19.1084 14.9771L19.1514 15.0005L20.4258 15.7144L21.0166 14.9175L18.5957 12.5884L16.373 10.2964L15.3848 7.40967L18.0889 9.65869Z" fill="url(#paint0_linear_1333_34058)" stroke="url(#paint1_linear_1333_34058)"/>
<path d="M33.6396 10.2974L31.4189 12.5884L28.999 14.9175L29.5898 15.7144L30.8633 15.0005L30.9072 14.9771L30.9443 14.9448L32.6035 13.5229L33.8506 12.771L33.1357 14.2798L29.3389 16.604L29.6885 17.522L30.0566 17.4546L29.3838 18.064L27.9473 18.4741L27.8379 18.5054L27.7529 18.5815L26.792 19.4321L26.6123 19.4282L26.3184 19.4224L26.1699 19.6753L25.5039 20.8081V17.2388L27.3975 14.312L27.4131 14.2866L28.5195 12.3257L28.5762 12.2251L28.583 12.1108L28.6533 10.9839L29.6709 10.0532L29.4131 11.2681L29.168 12.4194L30.167 11.7964L31.0684 11.2339L31.1895 11.1587L31.252 11.0298L31.9238 9.65967L34.6289 7.41064L33.6396 10.2974Z" fill="url(#paint2_linear_1333_34058)" stroke="url(#paint3_linear_1333_34058)"/>
<path d="M22.7666 12.1342V11.2082L25.0111 8.48462L25.0112 16.056L22.7666 12.1342Z" fill="url(#paint4_radial_1333_34058)"/>
<path d="M27.2553 12.1342V11.2082L25.0107 8.48462V16.056L27.2553 12.1342Z" fill="url(#paint5_radial_1333_34058)"/>
</g>
<defs>
<linearGradient id="paint0_linear_1333_34058" x1="19.6731" y1="5.88721" x2="19.6731" y2="22.6468" gradientUnits="userSpaceOnUse">
<stop stop-color="white"/>
<stop offset="0.5" stop-color="#0B4FC7"/>
<stop offset="1" stop-color="#003CAE"/>
</linearGradient>
<linearGradient id="paint1_linear_1333_34058" x1="19.6731" y1="5.88721" x2="19.6731" y2="22.6468" gradientUnits="userSpaceOnUse">
<stop stop-color="#1968FF"/>
<stop offset="1" stop-color="#002873"/>
</linearGradient>
<linearGradient id="paint2_linear_1333_34058" x1="30.342" y1="5.88721" x2="30.342" y2="22.6468" gradientUnits="userSpaceOnUse">
<stop stop-color="white"/>
<stop offset="0.5" stop-color="#0B4FC7"/>
<stop offset="1" stop-color="#003CAE"/>
</linearGradient>
<linearGradient id="paint3_linear_1333_34058" x1="30.342" y1="5.88721" x2="30.342" y2="22.6468" gradientUnits="userSpaceOnUse">
<stop stop-color="#1968FF"/>
<stop offset="1" stop-color="#002873"/>
</linearGradient>
<radialGradient id="paint4_radial_1333_34058" cx="0" cy="0" r="1" gradientUnits="userSpaceOnUse" gradientTransform="translate(25 11.5) rotate(90) scale(8.5 2.51989)">
<stop offset="0.0001" stop-color="#2B74FF"/>
<stop offset="1" stop-color="#002977"/>
</radialGradient>
<radialGradient id="paint5_radial_1333_34058" cx="0" cy="0" r="1" gradientUnits="userSpaceOnUse" gradientTransform="translate(25 11.5) rotate(90) scale(8.5 2.51989)">
<stop stop-color="#2B74FF"/>
<stop offset="1" stop-color="#002977"/>
</radialGradient>
<clipPath id="clip0_1333_34058">
<rect width="45" height="24" fill="white" transform="translate(2.5 1.5)"/>
</clipPath>
</defs>
</svg>
