<svg width="50" height="27" viewBox="0 0 50 27" fill="none" xmlns="http://www.w3.org/2000/svg">
<g clip-path="url(#clip0_1333_34092)">
<g clip-path="url(#clip1_1333_34092)">
<path d="M17.6289 9.70996L17.6562 9.74414L17.6895 9.77246L20.4346 12.1426L20.5088 12.207L20.6025 12.2383L21.4629 12.5264L20.6875 14.3848L20.5977 14.5986L20.7031 14.8047L22.8428 19.0039L22.9043 19.125L23.0195 19.1982L24.3242 20.0322V23.8145L22.25 20.9941L22.1914 20.915L22.1084 20.8643L18.6758 18.7656L15.6309 15L16.0947 15.0635L17.1406 15.2051L16.5889 14.3057L14.584 11.042L14.9912 11.1572L15.7607 11.374L15.6191 10.5869L14.8467 6.2998L17.6289 9.70996Z" fill="url(#paint0_linear_1333_34092)" stroke="url(#paint1_linear_1333_34092)"/>
<path d="M33.9814 10.5869L33.8389 11.374L34.6084 11.1572L35.0156 11.042L33.0117 14.3057L32.46 15.2051L33.5049 15.0635L33.9688 15L30.9238 18.7656L27.4922 20.8643L27.4082 20.915L27.3506 20.9941L25.2764 23.8135V20.0322L26.5811 19.1982L26.6953 19.125L26.7568 19.0039L28.8975 14.8047L29.002 14.5986L28.9131 14.3848L28.1367 12.5264L28.998 12.2383L29.0918 12.207L29.166 12.1426L31.9111 9.77246L31.9443 9.74414L31.9717 9.70996L34.7529 6.29785L33.9814 10.5869Z" fill="url(#paint2_linear_1333_34092)" stroke="url(#paint3_linear_1333_34092)"/>
<path d="M15.1333 0.100098L3.46667 13.4946L15.1333 26.8892H11.6667L0 13.4946L11.6667 0.100098H15.1333Z" fill="#7C8E93"/>
<path d="M34.7998 0.100098L46.4665 13.4946L34.7998 26.8892H38.2665L49.9331 13.4946L38.2665 0.100098H34.7998Z" fill="#7C8E93"/>
</g>
</g>
<defs>
<linearGradient id="paint0_linear_1333_34092" x1="19.1566" y1="4.48438" x2="19.1566" y2="25.3383" gradientUnits="userSpaceOnUse">
<stop stop-color="white"/>
<stop offset="0.5" stop-color="#79898F"/>
<stop offset="1" stop-color="#3F545B"/>
</linearGradient>
<linearGradient id="paint1_linear_1333_34092" x1="19.1566" y1="4.48438" x2="19.1566" y2="25.3383" gradientUnits="userSpaceOnUse">
<stop stop-color="#84979E"/>
<stop offset="1" stop-color="#394F56"/>
</linearGradient>
<linearGradient id="paint2_linear_1333_34092" x1="30.4437" y1="4.48438" x2="30.4437" y2="25.3383" gradientUnits="userSpaceOnUse">
<stop stop-color="#EBF3F3"/>
<stop offset="0.5" stop-color="#79898F"/>
<stop offset="1" stop-color="#3F545B"/>
</linearGradient>
<linearGradient id="paint3_linear_1333_34092" x1="30.4969" y1="4.48438" x2="30.4969" y2="25.3383" gradientUnits="userSpaceOnUse">
<stop stop-color="#84979E"/>
<stop offset="1" stop-color="#394F56"/>
</linearGradient>
<clipPath id="clip0_1333_34092">
<rect width="50" height="27" fill="white"/>
</clipPath>
<clipPath id="clip1_1333_34092">
<rect width="50" height="26.8" fill="white" transform="translate(0 0.100098)"/>
</clipPath>
</defs>
</svg>
