<svg width="241" height="220" viewBox="0 0 241 220" fill="none" xmlns="http://www.w3.org/2000/svg">
<path d="M28.1108 31.8428L62.5393 74.7165L74.0153 85.1942L85.9903 100.662L87.4868 85.1942L101.458 95.1734L120.418 62.7415L120.419 202.451L91.9779 179.499L87.4868 166.027L81.4998 159.041L70.0237 159.041L57.5498 146.567L43.5787 136.09L55.5535 131.1L41.5826 122.618L30.6055 102.66L28.1108 72.7207L28.1108 62.7415L28.1108 31.8428Z" fill="#6489A2"/>
<path d="M212.857 31.602L178.429 74.4758L166.953 84.9535L154.978 100.422L153.481 84.9535L139.511 94.9326L120.55 62.5008L86.4892 126.111L120.55 202.21L148.99 179.258L153.481 165.786L159.468 158.801L170.945 158.801L183.418 146.327L197.39 135.849L185.415 130.86L199.386 122.377L210.363 102.419L212.857 72.4799L212.857 62.5008L212.857 31.602Z" fill="#6489A2"/>
<path d="M35.035 48.7911L59.9827 80.6643L71.0488 89.4392L79.0321 106.153L93.9727 121.08L108.443 143.574L120.916 168.023L120.916 197.462L104.978 165.281L100.487 149.562L91.9769 139.084L83.5227 136.84L79.0321 128.065L72.4567 121.08L63.5644 116.882L59.9827 101.122L51.0904 90.9361L42.1092 86.9444L35.035 61.9965L35.035 48.7911Z" fill="#D8D8D8"/>
<path d="M206.354 48.8964L181.406 80.7695L170.34 89.5444L162.357 106.258L147.416 121.185L132.946 143.68L120.943 168.023L117.425 177.503L120.943 197.462L136.411 165.386L140.901 149.667L149.412 139.189L157.866 136.945L162.357 128.17L168.932 121.185L177.824 116.987L181.406 101.227L190.298 91.0413L199.279 87.0496L206.354 62.1017L206.354 48.8964Z" fill="#D8D8D8"/>
<path d="M47.7129 136.633L69.0243 136.633L83.4942 142.576L97.4649 158.043L97.4649 177.004L91.9765 161.537L83.4942 154.052L74.014 154.052L69.0243 149.562L60.0432 142.576L47.7129 136.633Z" fill="#D8D8D8"/>
<path d="M33.253 80.2067L44.2305 94.1775L54.5555 106.152L56.2055 114.136L70.6768 133.597L56.2055 124.115L47.0702 121.121L37.59 100.165L33.253 80.2067Z" fill="#D8D8D8"/>
<path d="M194.04 136.633L172.729 136.633L158.259 142.576L144.288 158.043L144.288 177.004L149.776 161.537L158.259 154.052L167.739 154.052L172.729 149.562L181.71 142.576L194.04 136.633Z" fill="#D8D8D8"/>
<path d="M208.5 80.2067L197.522 94.1775L187.197 106.152L185.547 114.136L171.076 133.597L185.547 124.115L194.683 121.121L204.163 100.165L208.5 80.2067Z" fill="#D8D8D8"/>
<path d="M91.1039 92.6505L103.167 103.862L103.156 110.388L107.666 115.902L110.695 106.861L107.696 98.8342L120.856 73.6897L120.856 158.513L107.637 132.467L95.6092 117.429L91.1042 108.903L91.1039 92.6505Z" fill="#D8D8D8"/>
<path d="M150.703 92.4732L138.666 103.655L138.686 110.172L134.187 115.672L131.15 106.64L134.136 98.6279L120.752 73.8061L120.856 158.512L134.237 132.214L146.233 117.211L150.723 108.703L150.703 92.4732Z" fill="#D8D8D8"/>
</svg>
