<svg width="50" height="27" viewBox="0 0 50 27" fill="none" xmlns="http://www.w3.org/2000/svg">
<g clip-path="url(#clip0_1333_34098)">
<g clip-path="url(#clip1_1333_34098)">
<path d="M15.5556 0L3.56339 13.5L15.5556 27H11.9922L0 13.5L11.9922 0H15.5556Z" fill="#8D440F"/>
<path d="M34.4443 0L46.4365 13.5L34.4443 27H38.0077L49.9999 13.5L38.0077 0H34.4443Z" fill="#8D440F"/>
<path d="M20.9863 11.1982L20.1357 12.7617L19.998 13.0137L20.1475 13.2598L22.542 17.2109L22.584 17.2812L22.6465 17.334L25.0547 19.3691V21.1445L23.9238 19.8213L23.8867 19.7783L23.8408 19.7441L17.8867 15.3477L15.6211 11.5586L15.9863 11.7012L16.8965 12.0557L16.6523 11.1104L15.5732 6.93359L20.9863 11.1982Z" fill="url(#paint0_linear_1333_34098)" stroke="url(#paint1_linear_1333_34098)"/>
<path d="M34.459 11.1104L34.2139 12.0557L35.124 11.7012L35.4883 11.5586L33.2217 15.3496L27.2705 19.7441L27.2246 19.7783L27.1875 19.8213L26.0557 21.1445V19.3691L28.4648 17.334L28.5273 17.2812L28.5693 17.2109L30.9639 13.2598L31.1133 13.0137L30.9756 12.7617L30.123 11.1982L35.5361 6.93457L34.459 11.1104Z" fill="url(#paint2_linear_1333_34098)" stroke="url(#paint3_linear_1333_34098)"/>
</g>
</g>
<defs>
<linearGradient id="paint0_linear_1333_34098" x1="19.9999" y1="5.625" x2="19.9999" y2="22.5" gradientUnits="userSpaceOnUse">
<stop stop-color="#B5774B"/>
<stop offset="0.5" stop-color="#803D13"/>
</linearGradient>
<linearGradient id="paint1_linear_1333_34098" x1="19.9999" y1="5.625" x2="19.9999" y2="22.5" gradientUnits="userSpaceOnUse">
<stop stop-color="#A14C17"/>
<stop offset="1" stop-color="#401A06"/>
</linearGradient>
<linearGradient id="paint2_linear_1333_34098" x1="31.1112" y1="5.625" x2="31.1112" y2="22.5" gradientUnits="userSpaceOnUse">
<stop stop-color="#B5774B"/>
<stop offset="0.5" stop-color="#803D13"/>
</linearGradient>
<linearGradient id="paint3_linear_1333_34098" x1="31.1112" y1="5.625" x2="31.1112" y2="22.5" gradientUnits="userSpaceOnUse">
<stop stop-color="#A14C17"/>
<stop offset="1" stop-color="#401A06"/>
</linearGradient>
<clipPath id="clip0_1333_34098">
<rect width="50" height="27" fill="white"/>
</clipPath>
<clipPath id="clip1_1333_34098">
<rect width="50" height="27" fill="white"/>
</clipPath>
</defs>
</svg>
