<svg width="150" height="150" viewBox="0 0 150 150" fill="none" xmlns="http://www.w3.org/2000/svg">
<path d="M63.8855 67.3269C77.4462 67.3269 89.5958 69.6098 98.3529 73.7109C107.112 77.8128 112.462 83.7254 112.462 90.9807C112.462 98.2527 109.546 105.159 103.245 110.248C96.9432 115.339 87.2506 118.615 73.6932 118.615C60.1358 118.615 47.8864 115.295 39.0283 110.157C30.1677 105.017 24.7124 98.0659 24.7124 90.8077C24.7124 83.5382 27.7275 77.6724 34.1263 73.6209C40.5291 69.5669 50.324 67.3269 63.8855 67.3269Z" fill="#0A0A0A" stroke="#0A0A0A"/>
<path d="M98.2703 19.4424C119.939 19.4424 136.809 36.8455 136.809 55.9616C136.809 75.0705 119.946 88.9616 98.2703 88.9616C87.4336 88.9616 76.874 85.2722 69.0245 79.1932C61.1751 73.1141 56.0396 64.6489 56.0396 55.0962C56.0396 45.5428 61.1759 36.63 69.0261 30.1037C76.8762 23.5777 87.4354 19.4424 98.2703 19.4424Z" fill="#0A0A0A" stroke="#0A0A0A"/>
<path d="M107.444 131.769C109.947 131.769 111.749 132.594 112.924 133.827C114.101 135.059 114.655 136.702 114.655 138.346C114.655 139.162 114.401 139.829 113.943 140.375C113.485 140.92 112.819 141.345 111.993 141.669C110.339 142.319 108.055 142.558 105.54 142.558C103.033 142.558 100.258 141.831 98.1117 140.692C97.0386 140.122 96.125 139.45 95.4804 138.718C94.8357 137.985 94.4629 137.195 94.4629 136.385C94.4629 135.583 94.9466 134.892 95.768 134.303C96.5894 133.716 97.7402 133.237 99.0524 132.861C101.676 132.109 104.93 131.769 107.444 131.769Z" fill="#0A0A0A" stroke="#0A0A0A"/>
<path d="M68.9051 124.846C69.7047 124.846 70.4798 125.262 71.1956 125.964C71.9112 126.668 72.5625 127.653 73.1129 128.783C74.2136 131.041 74.9051 133.86 74.9051 136.096C74.9051 138.33 74.2158 139.71 73.1298 140.533C72.0406 141.359 70.5415 141.635 68.9051 141.635C67.2871 141.635 65.8172 140.737 64.7498 139.276C63.6825 137.814 63.0205 135.793 63.0205 133.558C63.0205 131.322 63.6826 129.141 64.7514 127.52C65.8208 125.899 67.2909 124.846 68.9051 124.846Z" fill="#0A0A0A" stroke="#0A0A0A"/>
<path d="M19.7207 127.493C20.4261 127.111 21.3085 127.057 22.2746 127.258C23.2404 127.457 24.2847 127.912 25.3082 128.54C27.3555 129.794 29.3089 131.736 30.3734 133.701C31.4399 135.669 31.6337 137.106 31.216 138.241C30.7976 139.377 29.7595 140.227 28.3196 141.007C26.8952 141.779 25.0109 141.788 23.2128 141.11C21.4158 140.432 19.7109 139.07 18.6479 137.107C17.5823 135.14 17.1386 133.119 17.3181 131.399C17.4972 129.68 18.2981 128.264 19.7207 127.493Z" fill="#0A0A0A" stroke="#0A0A0A"/>
<path d="M28.7011 101.825C31.9003 99.0913 36.2848 97.4927 40.3855 97.1816C44.4886 96.8704 48.2913 97.8488 50.3419 100.249C52.3967 102.654 52.9021 105.461 52.0962 108.351C51.2897 111.244 49.1682 114.222 45.9637 116.96C42.7614 119.695 38.4363 121.77 34.3974 122.556C30.3549 123.343 26.6194 122.836 24.5722 120.44C22.5186 118.036 21.9485 114.753 22.6939 111.383C23.4393 108.013 25.4998 104.56 28.7011 101.825Z" fill="#0A0A0A" stroke="#0A0A0A"/>
<path d="M21.182 123.854C20.9941 122.424 21.3265 120.377 21.8386 118.04C22.3494 115.709 23.0394 113.089 23.5568 110.536C24.0745 107.981 24.4224 105.48 24.2493 103.376C24.0766 101.277 23.8615 99.3474 23.7343 97.6156C23.6073 95.8856 23.569 94.3633 23.7492 93.0881C23.9293 91.8132 24.3272 90.791 25.0673 90.0549C25.807 89.3193 26.896 88.862 28.4738 88.7322C31.6264 88.4729 34.198 89.6996 36.0694 92.0341C37.9427 94.371 39.1162 97.8203 39.4603 102.005C39.6318 104.088 39.1235 106.595 38.1623 109.192C37.2012 111.789 35.7889 114.474 34.1568 116.913C32.5245 119.354 30.6733 121.547 28.8357 123.161C26.9963 124.779 25.1777 125.81 23.6101 125.939C22.8275 126.003 22.2702 125.831 21.8851 125.476C21.4985 125.118 21.2758 124.568 21.182 123.854Z" fill="#0A0A0A" stroke="#0A0A0A"/>
<path d="M23.8537 97.3515C20.9591 86.3122 27.4999 74.0827 42.2282 70.2207C49.5968 68.2885 57.1516 68.4052 63.2246 70.3853C69.2976 72.3656 73.8814 76.2061 75.3267 81.718C76.7722 87.2309 74.4411 94.6903 69.8956 101.261C65.3517 107.83 58.6054 113.496 51.2449 115.426C43.8852 117.355 37.7641 115.599 33.1198 111.982C28.4735 108.363 25.3031 102.878 23.8537 97.3515Z" fill="#0A0A0A" stroke="#0A0A0A"/>
<path d="M11.1771 63.9322C4.05856 83.654 15.9378 94.3881 23.6665 97.385L33.8256 93.8237C34.1841 91.7609 32.2124 87.8655 26.5948 85.0664C20.3691 81.9645 20.8778 73.896 22.1726 69.5953C28.77 51.8939 23.6665 44.316 16.4358 39.8788C6.99397 36.5 2.2124 44.4809 6.99396 48.5195C13.5857 54.0869 13.346 57.9232 11.1771 63.9322Z" fill="#0A0A0A" stroke="#0A0A0A"/>
<path d="M49.6359 137.25L37.5205 119.481L46.1167 109.327C49.386 111.058 55.3474 114.692 53.0397 115.385C50.732 116.077 56.4436 126.865 58.8667 132.692C60.482 137.019 57.9629 139.711 56.6744 140.192C53.9513 141.531 50.8474 138.788 49.6359 137.25Z" fill="#0A0A0A" stroke="#0A0A0A"/>
<path d="M59.5829 10.4802C58.7182 13.2997 57.5 36 59.4997 43.5C62.4394 50.4622 83.5623 31.4243 83.5623 31.4243C86.31 30.8682 90.5602 28.3518 85.5798 22.736C80.5995 17.1202 70.1316 11.1515 65.5201 8.86906C62.0154 7.07384 60.4474 7.66063 59.5829 10.4802Z" fill="#0A0A0A" stroke="#0A0A0A"/>
<path d="M116.064 6.83991C112.208 9.88769 105.566 17.5169 102.897 21.5615L113.632 31.4526L127.924 34.6154C128.256 26.4266 121.401 8.22006 121.401 8.22006C121.401 8.22006 119.919 3.79213 116.064 6.83991Z" fill="#0A0A0A" stroke="#0A0A0A"/>
<path d="M31.2897 121.615C28.1051 127.477 28.4051 129.635 29.1551 132.462L22.8667 135.865C21.6167 136.289 18.8397 136.604 17.732 134.481C16.3474 131.827 16.4628 123.074 16.4628 122.654C16.4628 120.981 17.1551 113.596 19.982 110.654C22.0573 108.494 24.0205 103.673 24.0205 101.423L30.2513 103.731C32.0206 106.827 34.4743 115.754 31.2897 121.615Z" fill="#0A0A0A" stroke="#0A0A0A"/>
<path d="M86.1033 126.464C84.4716 129.276 77.1097 133.627 73.6329 135.451C69.8256 133.531 62.5 129.5 65.4998 126.5C68.8563 123.919 71.7292 119.742 72.2925 117.995L69.6702 115.229L73.2249 115.69L80.7422 110.332C85.0349 108.45 94.5995 106.022 98.5154 111.369C102.431 116.715 106.907 127.617 108.655 132.398C105.547 135.413 98.7252 140.948 96.3011 138.966C93.8769 136.985 88.4924 129.805 86.1033 126.464Z" fill="#0A0A0A" stroke="#0A0A0A"/>
<path d="M50 104.635C51.0154 104.727 50.8857 106.308 50.7703 107.231C50.6549 108.154 49.6346 110.846 49 111.904C61.1846 115.827 70.9049 116.058 74.4242 115.308C73.9165 114.892 72.7127 113.788 72.1742 113.288C71.7588 111.535 73.1165 111.635 73.8473 111.904C79.8011 114.442 92.5973 130.385 98.2511 138.038C100.651 139.885 106.001 140.211 108.463 140C111.97 140.046 112.443 139.192 112.443 139.192C112.443 139.192 113.078 138.731 112.616 136.423C112.155 134.115 109.347 133.346 108.001 133.25C106.847 133.296 106.366 132.307 106.27 131.808C105.163 126.131 95.0203 110.288 90.8665 104.173C90.405 102.961 92.3653 102.115 92.9999 102.635C93.7305 103.084 97.0905 107.644 98.4999 110.135H99.4999C110.808 102.335 110.558 92.6538 109.5 87.6345C105.669 87.6807 104 86.1345 104 84.6345C85.2703 93 140 85.269 134.5 52.1345C129 19 97.9434 19.4807 85.2703 24.0384C84.4396 24.0846 83.8857 23.7884 83.7126 23.6346C77.6203 17.6807 67.828 12.1538 63.6934 10.1346C62.078 9.25763 61.4818 10.0384 61.3857 10.5384C59.7242 15.9846 60.6934 31.0769 61.3857 37.9423C61.7088 40.3423 61.5204 41.4807 61.3857 41.75C53.2626 61.1346 63 72.5 71.9232 79.0193C73.1348 80.2308 70.8654 80.9364 70 80.5C63.6934 76.5 60.1153 72.9807 58.4999 69.6345C25.9153 69.773 24.7114 87.6922 26.4999 102.635C25.845 105.923 23.2308 109.923 21.8462 111.096C18.7512 113.718 18.4434 121.519 18.7511 125.519C18.9357 133.504 20.9818 137.115 21.9819 137.923C25.4434 140.046 28.1549 138.462 29.078 137.404C29.8857 134.519 27.9242 133.019 26.8857 132.442C26.0549 131.981 26.0396 131.442 26.1357 131.231C25.7319 128.404 28.5961 122.692 28.9999 122C29.323 121.446 31.3269 121.039 31.9999 121.077C43.446 119.738 46.2309 111.231 47.2886 107.673C47.8655 106.404 48.9846 104.542 50 104.635Z" fill="white"/>
<path d="M23.7309 85.5C23.2309 87 22.2309 92 22.2309 94.5C6.23086 86.5 10.1539 68.6346 13.7309 60.5C15.7616 52.0539 10.8073 49.5768 8.49962 47.5C4.5 42.5 10.4998 39.0472 15.9999 41.5001C25.4996 47 23.7895 60.0577 20.9999 66.9231C16.7023 77.5 20.9999 84.5 23.7309 85.5Z" fill="white"/>
<path d="M41 121C40.6754 121.233 40.751 121.212 41 121.5C41.249 121.788 51.6335 136.485 51.6335 136.485C56.8835 141.504 57.8066 136.023 56.8835 132.908C56.0066 130.647 50.7242 121.023 49.9604 116.697C49.7874 115.716 48.9797 115.427 48.4027 115.197C47.0002 114.636 46.9982 115.197 46.5002 116C44.7117 118.885 42.7692 119.731 41 121Z" fill="white"/>
<path d="M67.0013 128.423C65.3859 129.3 65.4436 130.789 65.4436 131.596C65.4436 138.381 68.6744 139.789 70.2321 139.615C73.6013 138.923 73.0206 136.134 72.309 134.827C71.9859 134.319 72.3283 134.077 72.5398 134.019C74.6744 133.789 82.4615 127.308 83.5 126.5C84.3308 125.854 84.232 125.173 84.0205 125L77.5 118.5C76 118.5 75 119 75 119C73.3251 119.615 73.5013 119.731 73.4628 120.635C72.909 123.312 68.9244 126.943 67.0013 128.423Z" fill="white"/>
<path d="M122.671 26.0603C116.652 21.2979 109.045 19.622 107.925 19.3931C106.805 19.1642 106.866 19.2247 107.256 18.4406C108.853 15.227 115.589 8.95795 116.189 8.43974C116.789 7.92154 118.504 6.15493 119.43 7.48722C121.282 9.3921 124.726 22.6432 125.912 27.9652C126.107 29.5415 126.304 29.6158 122.671 26.0603Z" fill="white"/>
<path d="M70.4251 64.4344C63.4911 66.1446 57.0392 69.7027 55.3118 71.7354C53.5844 73.7683 55.5238 74.8064 57.0577 73.2691C59.5582 70.2094 66.9793 67.9244 70.9464 66.6585C72.6195 66.1247 72.1253 64.3122 70.4251 64.4344Z" fill="#0A0A0A"/>
<path d="M122.683 61.5577L122.686 61.5539C123.174 60.9891 125.279 58.5463 114.458 53.4808C111.688 52.1845 109.265 46.9615 112.664 41.3077C114.395 38.4275 119.06 32.1692 113.798 30C116.779 30.4423 122.729 34.9038 122.683 40.9038C123.414 40.5577 124.426 38.6077 123.549 37.0385C125.202 38.2307 128.164 40.8462 127.472 45.2308C128.102 44.7303 129.103 43.4048 128.679 42.607C128.661 42.5774 128.643 42.5481 128.626 42.5192C128.645 42.5477 128.664 42.5769 128.679 42.607C131.294 46.8932 135.104 58.6242 122.683 61.5577Z" fill="#E42322"/>
<path d="M112 65C108.663 69.1972 106.508 66.5849 105 65C103.492 63.4151 102.605 65.0721 103.382 66.3828C108.006 71.4107 111.682 68.6225 113.056 66.6004C119.128 69.2674 120.601 65.0686 120.5 62.5C119.796 61.0244 118.684 62.3887 118.5 63.5C117.545 66.5058 115.656 65.8744 114.5 65C113.769 64.6184 113.207 62.466 113.257 61.4642C113.257 60.9395 113.391 60.6444 113.459 60.5351C115.871 58.3053 115.218 56.8734 114.514 56.6002C112.252 55.3978 109.487 56.254 108.281 56.9827C106.391 58.3818 108.934 60.0796 110.442 60.7537C111.005 60.9286 111.414 61.1362 111.548 61.3002C111.789 61.7811 112 64.0709 112 65Z" fill="#0A0A0A"/>
<path d="M122.354 48.4773C120.277 48.8927 119.816 51.8811 119.643 53.1504C119.47 54.4196 117.739 53.8427 117.739 52.8042C117.323 49.4811 119.797 47.3043 121.143 46.6311C124.927 44.4157 128.7 47.9004 129.162 50.208C129.162 52.5734 127.627 51.8811 127.027 50.3811C126.104 48.0734 123.623 48.208 122.354 48.4773Z" fill="#0A0A0A"/>
<path d="M68.6843 58.4458C61.6909 56.9977 54.0438 57.8477 51.6085 58.9365C49.1732 60.0253 50.4819 61.7014 52.5289 60.9761C56.1046 59.2944 64.5592 59.8876 68.6843 60.4569C70.644 60.3708 70.4135 58.8038 68.6843 58.4458Z" fill="#0A0A0A"/>
<path d="M100.075 54.7924C93.9364 48.5155 89.4317 54.2731 88.6518 56.2347C87.8719 58.1962 86.4018 56.7539 86.6903 55.8308C88.1326 50.5231 92.7288 49.6193 95.5749 49.8885C98.7134 50.2578 101.421 52.9654 102.094 54.2155C102.048 55.9231 100.767 55.5003 100.075 54.7924Z" fill="#0A0A0A"/>
<path d="M144.365 51.104C142.981 50.7347 138.173 51.431 136 51.9118L136.865 54.3348C138.065 53.4118 141.98 53.0848 143.788 53.0655C145.462 53.1809 146.096 51.5655 144.365 51.104Z" fill="#0A0A0A"/>
<path d="M144.276 59.1346C141.276 57.6922 138.527 57.2885 136.892 57C136.219 57.7116 135.276 59.423 136.892 59.1346C138.88 58.7798 141.628 60.1614 143.815 60.75C145.315 61.1537 145.026 59.4952 144.276 59.1346Z" fill="#0A0A0A"/>
<path d="M66.5438 17.7398C69.5582 17.7507 73.7122 23.2928 76.5002 26.2075C72.9659 26.7791 68.1473 34.7823 66.5439 34.7021C64.9405 34.622 62.807 17.7261 66.5438 17.7398Z" fill="#BFBFBA"/>
<path d="M77.1061 28.3714C75.2023 29.2945 69.4909 33.9676 68.1062 35.2945C66.7216 36.6214 65.5339 34.4014 66.4332 33.3907C67.3324 32.3799 74.3759 27.0452 75.26 26.4676C76.1442 25.8901 75.6059 25.6782 75.26 25.2812C74.9142 24.8841 66.2939 19.2881 65.3947 18.7943C64.4954 18.3006 65.257 16.8976 66.4332 17.0059C67.6092 17.1142 77.3497 23.5906 78.7793 25.2812C80.2088 26.9718 79.01 27.4484 77.1061 28.3714Z" fill="#0A0A0A"/>
</svg>
