<svg width="1500" height="1500" viewBox="0 0 1500 1500" fill="none" xmlns="http://www.w3.org/2000/svg">
<path d="M1336.02 889.274C1336.02 445.731 944.291 300.901 763.579 305.589C578.305 650.177 333.098 1334.63 777.756 1329.81C1222.41 1324.99 1329.83 1037.29 1336.02 889.274Z" fill="#0A0A0A" stroke="#0A0A0A"/>
<path fill-rule="evenodd" clip-rule="evenodd" d="M1176.5 173.858C1055.5 214.189 689.355 493.673 726.004 819.86C762.653 1146.05 1077.5 1120.34 1218.5 798.341C1334.5 562.853 1302.5 131.86 1176.5 173.858Z" fill="#0A0A0A" stroke="#0A0A0A"/>
<path d="M896.504 375.87C909.171 386.703 940.604 401.87 965.004 375.87C1011.67 326.203 1121.2 224.17 1200 215.37C1221 205.87 1271.4 348.4 1229 606C1228.41 616.55 1230.87 637.124 1237.18 643.574C1238.13 644.178 1239.07 644.777 1240 645.37C1238.99 645.08 1238.05 644.46 1237.18 643.574C1117.82 567.533 886.98 410.396 896.504 375.87Z" fill="white"/>
<path d="M1291.49 924.335C1314.47 473.623 938.904 355.078 748.247 350.894C667.213 443.285 714.482 1015.56 748.246 1291.39C1185.5 1269.89 1287.63 1038.82 1291.49 924.335Z" fill="white"/>
<path d="M161 889.274C161 445.731 552.731 300.901 733.443 305.589C918.717 650.177 1163.92 1334.63 719.266 1329.81C274.609 1324.99 167.192 1037.29 161 889.274Z" fill="#0A0A0A" stroke="#0A0A0A"/>
<path fill-rule="evenodd" clip-rule="evenodd" d="M320.519 173.858C441.518 214.189 807.667 493.673 771.018 819.86C734.369 1146.05 419.521 1120.34 278.521 798.341C162.521 562.853 194.518 131.86 320.519 173.858Z" fill="#0A0A0A" stroke="#0A0A0A"/>
<path d="M205.527 921.913C182.547 471.201 557.842 354.684 748.5 350.5C829.534 442.892 782.54 1013.13 748.776 1288.97C311.517 1267.47 209.391 1036.4 205.527 921.913Z" fill="white"/>
<path d="M600.518 373.452C587.851 384.285 557.9 407.504 533.5 381.504C486.833 331.837 376.8 225.8 298 217C277 207.5 212 411.504 265.518 602.942C269.455 613.534 266.398 634.539 259.903 641.116C258.934 641.734 257.972 642.346 257.018 642.952C258.039 642.66 259.004 642.027 259.903 641.116C379.28 565.061 610.041 407.972 600.518 373.452Z" fill="white"/>
<path d="M1042 1231.5C868.8 1311.1 678.667 1291.33 604.5 1271.5L737 369C736.5 366 722.9 359.699 722.5 354.499C722.1 349.299 771.5 350.5 787.5 354.5L786 358.5L1076.5 1068C1137.17 1089.33 1215.2 1151.9 1042 1231.5Z" fill="white" stroke="white"/>
<path d="M777 307C755 303.4 717.5 306 717 307.5L738 341L756.5 333L768.5 323.5C778.5 319.667 799 310.6 777 307Z" fill="#0A0A0A" stroke="#0A0A0A"/>
<path d="M1383.49 924.805C1318.34 919.19 1231.62 932.791 1194.49 940.304C1152.49 948.804 1157.49 917.044 1174.49 908.805C1226.49 883.605 1339.49 879.306 1383.49 883.305C1427.49 887.304 1412.49 927.304 1383.49 924.805Z" fill="#0A0A0A" stroke="#0A0A0A"/>
<path d="M1363.34 1076.16C1303.37 1050.08 1216.84 1035.33 1179.25 1030.62C1136.74 1025.29 1151.6 996.779 1170.34 994.389C1227.66 987.075 1336.13 1019.01 1376.56 1036.83C1417 1054.64 1390.03 1087.78 1363.34 1076.16Z" fill="#0A0A0A" stroke="#0A0A0A"/>
<path d="M116.658 920.805C181.811 915.19 268.533 928.791 305.658 936.304C347.659 944.804 342.658 913.044 325.658 904.805C273.658 879.605 160.658 875.306 116.658 879.305C72.6581 883.304 87.6586 923.304 116.658 920.805Z" fill="#0A0A0A" stroke="#0A0A0A"/>
<path d="M136.812 1072.16C196.778 1046.08 283.312 1031.33 320.896 1026.62C363.415 1021.29 348.553 992.779 329.814 990.389C272.494 983.075 164.017 1015.01 123.586 1032.83C83.1547 1050.64 110.121 1083.78 136.812 1072.16Z" fill="#0A0A0A" stroke="#0A0A0A"/>
<path d="M340 312.497C373.073 316.531 405.219 385.572 432.219 422.739C392.719 424.738 327 538 309.5 535C292 532 299 307.497 340 312.497Z" fill="#CACACA" stroke="#CACACA"/>
<path d="M428.5 444.003C406.5 460.503 368.107 486.999 336.054 526.251C304 565.503 296.5 520.503 309.5 506.503C322.5 492.503 388.439 426.503 401.219 418.503C414 410.503 406.219 403.167 401.219 397.667C396.219 392.167 340 341.322 327 334.482C314 327.642 325.5 303.995 342.5 305.495C359.5 306.995 431.334 374.251 452 397.667C472.666 421.083 450.5 427.503 428.5 444.003Z" fill="#0A0A0A" stroke="#0A0A0A"/>
<path d="M1154.23 312.071C1121.16 316.104 1089.01 385.145 1062.01 422.312C1101.51 424.312 1167.23 537.573 1184.73 534.573C1202.23 531.573 1195.23 307.071 1154.23 312.071Z" fill="#CACACA" stroke="#CACACA"/>
<path d="M1065.73 443.576C1087.73 460.076 1126.12 486.573 1158.18 525.824C1190.23 565.076 1197.73 520.076 1184.73 506.076C1171.73 492.076 1105.79 426.076 1093.01 418.076C1080.23 410.076 1088.01 402.741 1093.01 397.241C1098.01 391.741 1154.23 340.895 1167.23 334.055C1180.23 327.215 1168.73 303.568 1151.73 305.068C1134.73 306.569 1062.9 373.825 1042.23 397.241C1021.56 420.657 1043.73 427.076 1065.73 443.576Z" fill="#0A0A0A" stroke="#0A0A0A"/>
<path d="M426.741 807.899C447.741 780.899 541.741 783.899 577.966 842.807C607.241 864.899 612.591 828.809 604.466 816.807C531.761 709.411 415.241 756.398 396.241 787.399C377.241 818.4 405.741 834.899 426.741 807.899Z" fill="#0A0A0A" stroke="#0A0A0A"/>
<path d="M743.568 1001C682.953 972.233 599.853 895.789 743.568 897.144C798.316 895.191 886.305 912.26 743.568 1001Z" fill="#0A0A0A" stroke="#0A0A0A"/>
<path d="M884.532 1025.34C860.581 1069.5 765.021 1072.7 758.999 989C752.976 905.295 742.999 979.223 742.999 979.223V1053.91C814.869 1127.29 895.792 1077.51 914.645 1039.37C933.499 1001.23 908.482 981.181 884.532 1025.34Z" fill="#0A0A0A" stroke="#0A0A0A"/>
<path d="M600.732 1025.26C624.683 1069.42 720.242 1072.62 726.265 988.918C732.288 905.213 742.265 979.141 742.265 979.141V1053.83C670.394 1127.21 589.472 1077.43 570.619 1039.29C551.765 1001.15 576.781 981.098 600.732 1025.26Z" fill="#0A0A0A" stroke="#0A0A0A"/>
<path d="M1155.23 804.5C1164.43 943.3 1028.57 1039.83 960.233 1070.5C994.733 972 912.44 929.5 849.44 903C786.44 876.5 711.733 737.5 827.733 624C910.654 542.866 910.066 470.667 887.733 429C1049.73 481.8 1034.9 639.667 1007.23 712C1058.03 698.8 1083.57 630.833 1089.73 597.5C1155.33 671.9 1113.57 803.5 1084.73 861C1108.33 853.4 1141.57 820.167 1155.23 804.5Z" fill="#E42322" stroke="#E42322"/>
<path d="M906.215 840.671L905.966 840.908C876.466 868.909 871.341 826.909 879.466 814.908C952.171 707.512 1061.47 743.907 1080.47 774.908C1099.47 805.909 1066.47 807.908 1049.97 798.908C990.134 761.015 935.772 812.616 906.215 840.671Z" fill="#0A0A0A" stroke="#0A0A0A"/>
</svg>
