<svg width="1300" height="1300" viewBox="0 0 1300 1300" fill="none" xmlns="http://www.w3.org/2000/svg">
<path d="M553.676 583.5C671.202 583.5 776.499 603.285 852.394 638.828C928.304 674.378 974.676 725.62 974.676 788.5C974.676 851.524 949.4 911.378 894.792 955.486C840.176 999.602 756.174 1028 638.676 1028C521.179 1028 415.017 999.226 338.247 954.692C261.455 910.147 214.176 849.905 214.176 787C214.176 723.998 240.307 673.161 295.763 638.048C351.254 602.913 436.143 583.5 553.676 583.5Z" fill="#0A0A0A" stroke="#0A0A0A"/>
<path d="M851.676 168.5C1039.47 168.5 1185.68 319.327 1185.68 485C1185.68 650.61 1039.53 771 851.676 771C757.758 771 666.241 739.025 598.212 686.34C530.184 633.655 485.676 560.29 485.676 477.5C485.676 394.704 530.191 317.459 598.226 260.898C666.26 204.339 757.773 168.5 851.676 168.5Z" fill="#0A0A0A" stroke="#0A0A0A"/>
<path d="M931.176 1142C952.875 1142 968.487 1149.15 978.676 1159.83C988.87 1170.51 993.676 1184.75 993.676 1199C993.676 1206.07 991.473 1211.85 987.507 1216.58C983.533 1221.31 977.766 1224.99 970.604 1227.8C956.273 1233.43 936.475 1235.5 914.676 1235.5C892.946 1235.5 868.901 1229.2 850.299 1219.33C840.999 1214.39 833.081 1208.57 827.494 1202.22C821.907 1195.87 818.676 1189.02 818.676 1182C818.676 1175.05 822.868 1169.06 829.987 1163.96C837.106 1158.87 847.079 1154.72 858.452 1151.46C881.193 1144.94 909.395 1142 931.176 1142Z" fill="#0A0A0A" stroke="#0A0A0A"/>
<path d="M597.176 1082C604.106 1082 610.823 1085.6 617.027 1091.69C623.229 1097.79 628.873 1106.33 633.643 1116.12C643.183 1135.69 649.176 1160.12 649.176 1179.5C649.176 1198.86 643.202 1210.82 633.79 1217.95C624.35 1225.11 611.358 1227.5 597.176 1227.5C583.153 1227.5 570.414 1219.72 561.163 1207.06C551.913 1194.39 546.176 1176.87 546.176 1157.5C546.176 1138.12 551.914 1119.22 561.177 1105.17C570.445 1091.12 583.186 1082 597.176 1082Z" fill="#0A0A0A" stroke="#0A0A0A"/>
<path d="M170.914 1104.94C177.027 1101.63 184.675 1101.16 193.048 1102.9C201.418 1104.63 210.469 1108.57 219.339 1114.01C237.082 1124.88 254.012 1141.71 263.237 1158.74C272.48 1175.8 274.16 1188.25 270.54 1198.09C266.914 1207.93 257.917 1215.3 245.438 1222.06C233.093 1228.75 216.762 1228.83 201.179 1222.95C185.605 1217.08 170.829 1205.27 161.616 1188.26C152.381 1171.21 148.536 1153.7 150.091 1138.79C151.644 1123.89 158.585 1111.62 170.914 1104.94Z" fill="#0A0A0A" stroke="#0A0A0A"/>
<path d="M248.742 882.48C276.469 858.791 314.468 844.936 350.007 842.24C385.567 839.543 418.524 848.023 436.296 868.825C454.104 889.669 458.484 913.994 451.5 939.041C444.51 964.11 426.124 989.925 398.352 1013.65C370.598 1037.36 333.114 1055.34 298.11 1062.15C263.075 1068.97 230.701 1064.58 212.959 1043.81C195.161 1022.98 190.22 994.523 196.68 965.316C203.14 936.11 220.998 906.183 248.742 882.48Z" fill="#0A0A0A" stroke="#0A0A0A"/>
<path d="M183.576 1073.4C181.947 1061.01 184.828 1043.27 189.266 1023.01C193.693 1002.81 199.673 980.103 204.157 957.977C208.644 935.834 211.659 914.162 210.159 895.926C208.662 877.732 206.798 861.012 205.696 846.003C204.595 831.009 204.263 817.816 205.825 806.764C207.386 795.715 210.834 786.856 217.248 780.477C223.659 774.101 233.097 770.138 246.771 769.013C274.094 766.766 296.381 777.397 312.6 797.63C328.835 817.883 339.005 847.777 341.988 884.041C343.474 902.101 339.069 923.82 330.738 946.334C322.409 968.841 310.169 992.108 296.024 1013.25C281.877 1034.4 265.834 1053.41 249.908 1067.4C233.966 1081.42 218.205 1090.35 204.619 1091.47C197.837 1092.03 193.007 1090.54 189.669 1087.46C186.319 1084.36 184.389 1079.59 183.576 1073.4Z" fill="#0A0A0A" stroke="#0A0A0A"/>
<path d="M206.731 843.713C181.644 748.039 238.331 642.05 365.977 608.579C429.838 591.833 495.313 592.845 547.945 610.006C600.578 627.168 640.304 660.453 652.83 708.222C665.358 756.001 645.155 820.649 605.761 877.598C566.38 934.53 507.912 983.628 444.121 1000.36C380.337 1017.08 327.288 1001.86 287.037 970.509C246.769 939.144 219.292 891.613 206.731 843.713Z" fill="#0A0A0A" stroke="#0A0A0A"/>
<path d="M96.8699 554.078C35.1762 725 138.13 818.029 205.112 844.002L293.157 813.138C296.264 795.26 279.176 761.5 230.49 737.241C176.534 710.358 180.943 640.431 192.165 603.158C249.342 449.746 205.112 384.071 142.446 345.615C79.779 307.159 19.1762 385.5 60.6164 420.501C117.745 468.752 115.667 502 96.8699 554.078Z" fill="#0A0A0A" stroke="#0A0A0A"/>
<path d="M430.176 1189.5L325.176 1035.5L399.676 947.5C428.01 962.5 479.676 994 459.676 1000C439.676 1006 489.176 1099.5 510.176 1150C524.176 1187.5 502.343 1210.83 491.176 1215C467.576 1226.6 440.676 1202.83 430.176 1189.5Z" fill="#0A0A0A" stroke="#0A0A0A"/>
<path d="M516.386 90.8277C508.892 115.264 496.403 314.232 521.881 374.572C547.359 434.911 724.208 272.344 724.208 272.344C748.021 267.524 784.856 245.715 741.693 197.045C698.53 148.375 607.808 96.6456 567.842 76.8649C537.468 61.3063 523.879 66.3918 516.386 90.8277Z" fill="#0A0A0A" stroke="#0A0A0A"/>
<path d="M1005.88 59.2787C972.469 85.6928 914.903 151.813 891.774 186.866L984.804 272.589L1108.67 300C1111.55 229.03 1052.14 71.24 1052.14 71.24C1052.14 71.24 1039.29 32.8646 1005.88 59.2787Z" fill="#0A0A0A" stroke="#0A0A0A"/>
<path d="M271.176 1054C243.576 1104.8 246.176 1123.5 252.676 1148L198.176 1177.5C187.343 1181.17 163.276 1183.9 153.676 1165.5C141.676 1142.5 142.676 1066.64 142.676 1063C142.676 1048.5 148.676 984.5 173.176 959C191.162 940.28 208.176 898.5 208.176 879L262.176 899C277.51 925.833 298.776 1003.2 271.176 1054Z" fill="#0A0A0A" stroke="#0A0A0A"/>
<path d="M746.228 1096.02C732.087 1120.39 668.284 1158.1 638.151 1173.91C605.155 1157.27 546.437 1118.39 575.526 1096.02C604.616 1073.65 621.653 1037.76 626.535 1022.62L603.808 998.652L634.615 1002.65L699.765 956.209C736.969 939.898 819.862 918.86 853.8 965.197C887.738 1011.53 926.525 1106.01 941.676 1147.45C914.741 1173.58 855.618 1221.55 834.609 1204.37C813.599 1187.2 766.934 1124.98 746.228 1096.02Z" fill="#0A0A0A" stroke="#0A0A0A"/>
<path d="M434.176 913C442.976 913.8 441.676 925.5 440.676 933.5C439.676 941.5 427.676 971.333 422.176 980.5C527.776 1014.5 615.176 1010 645.676 1003.5C641.276 999.9 630.843 990.333 626.176 986C622.576 970.8 634.343 971.667 640.676 974C692.276 996 803.176 1134.17 852.176 1200.5C872.976 1216.5 919.343 1219.33 940.676 1217.5C971.076 1217.9 975.176 1210.5 975.176 1210.5C975.176 1210.5 980.676 1206.5 976.676 1186.5C972.676 1166.5 948.343 1159.83 936.676 1159C926.676 1159.4 922.509 1150.83 921.676 1146.5C912.076 1097.3 824.176 960 788.176 907C784.176 896.5 798.676 892 804.176 896.5C810.508 900.397 838.983 944.626 853.547 967.247L854.676 969C952.676 901.4 958.843 797.5 949.676 754C916.476 754.4 907.509 749.167 907.176 746.5C1149.98 706.9 1177.17 532 1162 449.5C1101 167 849.509 173 739.676 212.5C732.476 212.9 727.676 210.333 726.176 209C673.376 157.4 588.509 109.5 552.676 91.9998C538.676 84.3998 533.509 91.1665 532.676 95.4998C518.276 142.7 526.676 273.5 532.676 333C535.476 353.8 533.843 363.666 532.676 366C462.276 534 561.509 655 620.176 694.5C630.676 705 617.676 716.782 610.176 713C563.376 689.4 525.5 631.5 511.5 602.5C229.1 603.7 208 768.5 223.5 898C217.824 926.5 202 956.833 190 967C161.2 982.2 160.509 1057.33 163.176 1092C164.776 1161.2 182.509 1192.5 191.176 1199.5C221.176 1217.9 244.676 1204.17 252.676 1195C259.676 1170 242.676 1157 233.676 1152C226.476 1148 226.343 1143.33 227.176 1141.5C223.676 1117 242.176 1059.5 245.676 1053.5C248.476 1048.7 260.843 1048.17 266.676 1048.5C365.876 1036.9 408.009 972.333 417.176 941.5C422.176 930.5 425.376 912.2 434.176 913Z" fill="white" stroke="white"/>
<path d="M217.176 754.501C209.576 767.301 205.343 806.168 204.176 824.001C60.5761 763.201 90.5 614 121.5 543.5C139.1 470.3 99.1761 430.5 79.1761 412.501C41.6761 361.5 99 341.999 132.5 359.5C221.3 399.1 204.176 520.5 180 580C149.6 670 191.843 736.501 217.176 754.501Z" fill="white" stroke="white"/>
<path d="M353.989 1040.37C351.176 1042.39 350.676 1048 353.176 1050.5L447.489 1182.87C492.989 1226.37 500.989 1178.87 492.989 1151.87C485.389 1132.27 439.608 1048.87 432.989 1011.37C431.489 1002.87 424.489 1000.37 419.489 998.373C406.989 993.374 406.843 998.167 405.676 1000C390.176 1025 369.322 1029.37 353.989 1040.37Z" fill="white" stroke="white"/>
<path d="M580.676 1113C566.676 1120.6 567.176 1133.5 567.176 1140.5C567.176 1199.3 595.176 1211.5 608.676 1210C637.876 1204 632.843 1179.83 626.676 1168.5C623.876 1164.1 626.843 1162 628.676 1161.5C647.176 1159.5 719.176 1099.5 728.176 1092.5C735.376 1086.9 734.009 1084 732.176 1082.5L673.176 1025C663.176 1015.5 653.509 1021.17 647.176 1023.5C639.034 1026.5 637.009 1037.67 636.676 1045.5C631.876 1068.7 597.343 1100.17 580.676 1113Z" fill="white" stroke="white"/>
<path d="M1077 251.5C1037 205.5 946.176 185.751 934.676 183.5C923.176 181.249 926.879 177 928.176 174.5C944.576 142.9 998.843 95.3334 1023.68 75.5001C1029.68 70.3001 1033.18 73.3334 1034.18 75.5001C1048.98 95.9001 1077.01 205.667 1089.18 258C1091.18 273.5 1085 258 1077 251.5Z" fill="white" stroke="white"/>
<path d="M610.351 558.432C550.256 573.254 494.34 604.091 479.369 621.708C464.398 639.326 481.206 648.323 494.5 635C516.171 608.482 580.487 588.679 614.869 577.708C629.369 573.082 625.086 557.373 610.351 558.432Z" fill="#0A0A0A" stroke="#0A0A0A"/>
<path d="M1062.29 531.5L1062.31 531.467C1066.54 526.572 1084.79 505.401 991 461.5C967 450.266 946 405 975.454 356C990.458 331.038 1030.89 276.8 985.286 258C1011.12 261.833 1062.69 300.5 1062.29 352.5C1068.62 349.5 1077.39 332.6 1069.79 319C1084.12 329.333 1109.79 352 1103.79 390C1109.25 385.663 1117.93 374.175 1114.25 367.261C1114.1 367.004 1113.94 366.75 1113.79 366.5C1113.96 366.747 1114.12 367 1114.25 367.261C1136.92 404.408 1169.94 506.076 1062.29 531.5Z" fill="#E42322"/>
<path d="M1062.29 531.5C1066.45 526.667 1085 505.5 991 461.5C967 450.266 946 405 975.454 356C990.458 331.038 1030.89 276.8 985.286 258C1011.12 261.833 1062.69 300.5 1062.29 352.5C1068.62 349.5 1077.39 332.6 1069.79 319C1084.12 329.333 1109.79 352 1103.79 390C1109.45 385.5 1118.59 373.3 1113.79 366.5C1136.45 403 1170.69 505.9 1062.29 531.5Z" stroke="#E42322"/>
<path d="M984.063 566.491C950.863 604.891 927 579 912 564.5C897 550 892.831 569.009 900.563 581C946.563 627 983.128 601.491 996.795 582.991C1057.2 607.391 1066.8 571.491 1065.8 547.991C1058.8 534.491 1049.83 544.333 1048 554.5C1038.5 582 1020 574.491 1008.5 566.491C1001.23 563 998.295 547.157 998.795 537.991C998.795 533.191 1000.13 530.491 1000.8 529.491C1024.8 509.091 1018.3 495.991 1011.3 493.491C988.795 482.491 961.295 490.324 949.295 496.991C930.495 509.791 955.795 525.324 970.795 531.491C976.395 533.091 980.462 534.991 981.795 536.491C984.195 540.891 984.063 557.991 984.063 566.491Z" fill="#0A0A0A" stroke="#0A0A0A"/>
<path d="M1060.4 420.136C1042.4 423.736 1038.4 449.636 1036.9 460.636C1035.4 471.636 1020.4 466.636 1020.4 457.636C1016.8 428.836 1038.24 409.97 1049.9 404.136C1082.7 384.936 1115.4 415.136 1119.4 435.136C1119.4 455.636 1106.1 449.636 1100.9 436.636C1092.9 416.636 1071.4 417.802 1060.4 420.136Z" fill="#0A0A0A" stroke="#0A0A0A"/>
<path d="M595.263 506.529C534.654 493.979 468.379 501.346 447.273 510.782C426.167 520.218 437.509 534.745 455.25 528.459C486.239 513.884 559.512 519.025 595.263 523.959C612.247 523.213 610.25 509.632 595.263 506.529Z" fill="#0A0A0A" stroke="#0A0A0A"/>
<path d="M867.32 474.867C814.12 420.467 775.079 470.367 768.32 487.367C761.561 504.367 748.82 491.867 751.32 483.867C763.82 437.867 803.654 430.034 828.32 432.367C855.52 435.567 878.987 459.033 884.82 469.867C884.42 484.667 873.32 481.002 867.32 474.867Z" fill="#0A0A0A" stroke="#0A0A0A"/>
<path d="M1243.73 433.901C1231.73 430.701 1190.06 436.735 1171.23 440.902L1178.73 461.902C1189.13 453.902 1223.06 451.068 1238.73 450.901C1253.23 451.901 1258.73 437.901 1243.73 433.901Z" fill="#0A0A0A"/>
<path d="M1242.73 525.902C1216.73 513.401 1192.9 509.902 1178.73 507.402C1172.9 513.569 1164.73 528.401 1178.73 525.902C1195.96 522.827 1219.78 534.801 1238.73 539.902C1251.73 543.401 1249.23 529.027 1242.73 525.902Z" fill="#0A0A0A"/>
<path d="M1243.73 433.901C1231.73 430.701 1190.06 436.735 1171.23 440.902L1178.73 461.902C1189.13 453.902 1223.06 451.068 1238.73 450.901C1253.23 451.901 1258.73 437.901 1243.73 433.901Z" stroke="#0A0A0A"/>
<path d="M1242.73 525.902C1216.73 513.401 1192.9 509.902 1178.73 507.402C1172.9 513.569 1164.73 528.401 1178.73 525.902C1195.96 522.827 1219.78 534.801 1238.73 539.902C1251.73 543.401 1249.23 529.027 1242.73 525.902Z" stroke="#0A0A0A"/>
<path d="M571.72 153.744C597.845 153.839 633.846 201.87 658.009 227.131C627.378 232.085 585.617 301.446 571.721 300.751C557.825 300.057 539.334 153.626 571.72 153.744Z" fill="#BFBFBA" stroke="#BFBFBA"/>
<path d="M663.087 246.753C646.587 254.753 597.088 295.253 585.088 306.753C573.088 318.253 562.794 299.013 570.588 290.253C578.381 281.493 639.425 235.259 647.087 230.253C654.75 225.248 650.085 223.412 647.087 219.971C644.09 216.529 569.381 168.031 561.588 163.751C553.794 159.472 560.395 147.313 570.588 148.252C580.78 149.19 665.198 205.319 677.588 219.971C689.977 234.623 679.587 238.753 663.087 246.753Z" fill="#0A0A0A" stroke="#0A0A0A"/>
</svg>
